<svg width="160" height="160" viewBox="0 0 160 160" fill="none" xmlns="http://www.w3.org/2000/svg">
<g opacity="0.2">
<path d="M80 126.667C72.6666 126.667 66.6666 132.667 66.6666 140C66.6666 147.334 72.6666 153.334 80 153.334C87.3333 153.334 93.3333 147.334 93.3333 140C93.3333 132.667 87.3333 126.667 80 126.667ZM40 6.66699C32.6666 6.66699 26.6666 12.667 26.6666 20.0003C26.6666 27.3337 32.6666 33.3337 40 33.3337C47.3333 33.3337 53.3333 27.3337 53.3333 20.0003C53.3333 12.667 47.3333 6.66699 40 6.66699ZM40 46.667C32.6666 46.667 26.6666 52.667 26.6666 60.0003C26.6666 67.3337 32.6666 73.3336 40 73.3336C47.3333 73.3336 53.3333 67.3337 53.3333 60.0003C53.3333 52.667 47.3333 46.667 40 46.667ZM40 86.667C32.6666 86.667 26.6666 92.667 26.6666 100C26.6666 107.334 32.6666 113.334 40 113.334C47.3333 113.334 53.3333 107.334 53.3333 100C53.3333 92.667 47.3333 86.667 40 86.667ZM120 33.3337C127.333 33.3337 133.333 27.3337 133.333 20.0003C133.333 12.667 127.333 6.66699 120 6.66699C112.667 6.66699 106.667 12.667 106.667 20.0003C106.667 27.3337 112.667 33.3337 120 33.3337ZM80 86.667C72.6666 86.667 66.6666 92.667 66.6666 100C66.6666 107.334 72.6666 113.334 80 113.334C87.3333 113.334 93.3333 107.334 93.3333 100C93.3333 92.667 87.3333 86.667 80 86.667ZM120 86.667C112.667 86.667 106.667 92.667 106.667 100C106.667 107.334 112.667 113.334 120 113.334C127.333 113.334 133.333 107.334 133.333 100C133.333 92.667 127.333 86.667 120 86.667ZM120 46.667C112.667 46.667 106.667 52.667 106.667 60.0003C106.667 67.3337 112.667 73.3336 120 73.3336C127.333 73.3336 133.333 67.3337 133.333 60.0003C133.333 52.667 127.333 46.667 120 46.667ZM80 46.667C72.6666 46.667 66.6666 52.667 66.6666 60.0003C66.6666 67.3337 72.6666 73.3336 80 73.3336C87.3333 73.3336 93.3333 67.3337 93.3333 60.0003C93.3333 52.667 87.3333 46.667 80 46.667ZM80 6.66699C72.6666 6.66699 66.6666 12.667 66.6666 20.0003C66.6666 27.3337 72.6666 33.3337 80 33.3337C87.3333 33.3337 93.3333 27.3337 93.3333 20.0003C93.3333 12.667 87.3333 6.66699 80 6.66699Z" fill="url(#paint0_linear_18_695)"/>
</g>
<defs>
<linearGradient id="paint0_linear_18_695" x1="-14.2223" y1="-55.6663" x2="194.48" y2="101.675" gradientUnits="userSpaceOnUse">
<stop stop-color="#00A1E5"/>
<stop offset="1" stop-color="#EA5284"/>
</linearGradient>
</defs>
</svg>
