<svg width="160" height="160" viewBox="0 0 160 160" fill="none" xmlns="http://www.w3.org/2000/svg">
<g opacity="0.2">
<path d="M80 86.667C72.6667 86.667 66.6667 92.667 66.6667 100C66.6667 107.334 72.6667 113.334 80 113.334C87.3333 113.334 93.3333 107.334 93.3333 100C93.3333 92.667 87.3333 86.667 80 86.667ZM120 53.3337H113.333V40.0003C113.333 21.6003 98.4 6.66699 80 6.66699C64.8 6.66699 51.5333 16.9337 47.7333 31.667C46.8 35.267 48.9333 38.867 52.5333 39.8003C56.0667 40.7337 59.7333 38.6003 60.6667 35.0003C62.9333 26.2003 70.8667 20.0003 80 20.0003C91 20.0003 100 29.0003 100 40.0003V53.3337H40C32.6667 53.3337 26.6667 59.3337 26.6667 66.667V133.334C26.6667 140.667 32.6667 146.667 40 146.667H120C127.333 146.667 133.333 140.667 133.333 133.334V66.667C133.333 59.3337 127.333 53.3337 120 53.3337ZM120 126.667C120 130.334 117 133.334 113.333 133.334H46.6667C43 133.334 40 130.334 40 126.667V73.3337C40 69.667 43 66.667 46.6667 66.667H113.333C117 66.667 120 69.667 120 73.3337V126.667Z" fill="url(#paint0_linear_18_689)"/>
</g>
<defs>
<linearGradient id="paint0_linear_18_689" x1="-14.2222" y1="-52.833" x2="187.357" y2="106.375" gradientUnits="userSpaceOnUse">
<stop stop-color="#00A1E5"/>
<stop offset="1" stop-color="#EA5284"/>
</linearGradient>
</defs>
</svg>
