<svg width="24" height="24" viewBox="0 0 24 24" fill="none" xmlns="http://www.w3.org/2000/svg">
<g opacity="0.6">
<path d="M22 4.7V9C22 9.26522 21.8946 9.51957 21.7071 9.70711C21.5196 9.89464 21.2652 10 21 10H13C12.7348 10 12.4804 9.89464 12.2929 9.70711C12.1054 9.51957 12 9.26522 12 9V7H4V17H12V15C12 14.7348 12.1054 14.4804 12.2929 14.2929C12.4804 14.1054 12.7348 14 13 14H17C17.1818 14 17.3602 14.0495 17.5159 14.1432C17.6717 14.2369 17.7989 14.3713 17.884 14.532L18.5 15.7H21C21.2652 15.7 21.5196 15.8054 21.7071 15.9929C21.8946 16.1804 22 16.4348 22 16.7V21C22 21.2652 21.8946 21.5196 21.7071 21.7071C21.5196 21.8946 21.2652 22 21 22H13C12.7348 22 12.4804 21.8946 12.2929 21.7071C12.1054 21.5196 12 21.2652 12 21V19H3C2.73478 19 2.48043 18.8946 2.29289 18.7071C2.10536 18.5196 2 18.2652 2 18V3C2 2.73478 2.10536 2.48043 2.29289 2.29289C2.48043 2.10536 2.73478 2 3 2C3.26522 2 3.51957 2.10536 3.70711 2.29289C3.89464 2.48043 4 2.73478 4 3V5H12V3C12 2.73478 12.1054 2.48043 12.2929 2.29289C12.4804 2.10536 12.7348 2 13 2H17C17.1818 1.99995 17.3602 2.04946 17.5159 2.14319C17.6717 2.23693 17.7989 2.37135 17.884 2.532L18.5 3.7H21C21.2652 3.7 21.5196 3.80536 21.7071 3.99289C21.8946 4.18043 22 4.43478 22 4.7Z" fill="white"/>
</g>
</svg>
